<svg xmlns="http://www.w3.org/2000/svg" viewBox="-45 249.65248229980466 826.0799914550781 245.57500457763672"> <svg xmlns="http://www.w3.org/2000/svg" xmlns:xlink="http://www.w3.org/1999/xlink" version="1.1" id="Layer_1" x="25" y="319.65248229980466" viewBox="325.1000061035156 615.0999755859375 1349.800048828125 769.7999267578125" xml:space="preserve" height="105.57500457763672" width="185.1197527906735" preserveAspectRatio="xMinYMin" enable-background="new 0 0 2000 2000" style="overflow: visible;"><path id="XMLID_7_" d="M1518,1202.5h-316.6V954.3H1518V1202.5z M1230.1,1173.8h259.3V983h-259.3V1173.8z" style="fill: #6731A1; fill-opacity: 1;"></path><path id="XMLID_11_" d="M1518.6,1356.2v-132.4h-340.2V934.2h277.6v-90.4l141.2,48.8l9.8-26.9L911.7,615.1l-9.8,26.9l109.3,39.8   v110.4l-520.6,211.3l10.8,26.6l138.6-56.2v382.3H325.1v28.7h1349.8v-28.7H1518.6z M1427.4,833.3v72.2h-277.6v347H1490v103.7h-450.1   v-664L1427.4,833.3z M668.6,962.2l342.6-139.1v533.1H668.6V962.2z" style="fill: #6731A1; fill-opacity: 1;"></path><path id="XMLID_40_" d="M866.5,1180.6c-0.7,8.7-12.8,14.5-14.2,24.9c-1.3,9.3,4.8,16.4,13.9,16.3c10.6-0.2,14.6-8.2,13.1-16.8     C877.5,1196,866.6,1188.8,866.5,1180.6z" style="fill: #6731A1; fill-opacity: 1;"></path><path id="XMLID_37_" d="M845.8,1227c-0.7,8.7-12.8,14.5-14.2,24.9c-1.3,9.3,4.8,16.4,13.9,16.3c10.6-0.2,14.6-8.2,13.1-16.8      C856.9,1242.4,845.9,1235.1,845.8,1227z" style="fill: #6731A1; fill-opacity: 1;"></path><path id="XMLID_29_" d="M886.5,1227c-0.7,8.7-12.8,14.5-14.2,24.9c-1.3,9.3,4.8,16.4,13.9,16.3c10.6-0.2,14.6-8.2,13.1-16.8      C897.6,1242.4,886.6,1235.1,886.5,1227z" style="fill: #6731A1; fill-opacity: 1;"></path><path id="XMLID_2_" d="M823.7,1107.7h-8.1c-2-6.1-7.3-10.7-13.9-11.7v-20c3-0.8,5.4-3,6.4-5.9H833c2.8,0,5.1-2.3,5.1-5.1   c0-2.8-2.3-5.1-5.1-5.1h-24.5c-0.5-4.5-4.3-7.9-8.9-7.9h-9.2c-4.6,0-8.4,3.5-8.9,7.9h-23.6c-2.8,0-5.1,2.3-5.1,5.1   c0,2.8,2.3,5.1,5.1,5.1h24c0.9,2.9,3.3,5.2,6.4,5.9v19.8c-5.8,0.6-10.8,4.1-13.5,9h-30.2v-11.3h-17.7v11.3H555.7v166.8H452.6   c-8.1,0-15.7-3.3-21.4-9c-5.3-5.3-14-10.5-26.2-8.2c-14.3,3.4-21.2,14.8-23.8,20.3c-0.5,1.2,0.5,2.4,1.8,2.1l17.8-5.3   c5-1.5,10.2,1.1,12.1,6l3.9,12.7c2,5.2-0.8,11.1-6.2,12.8l-20.2,6.3c-1.3,0.4-1.4,2.2-0.2,2.8c5.8,2.5,17.5,6.9,26.9,5.6   c7.6-1.1,14.8-6.8,19.5-11.4c3.8-3.7,8.9-5.8,14.2-5.8h133.7v-18.4v-7.8v-140.7h142.4v10.3h17.7v-10.3h30c2.9,5.6,8.6,9.4,15.3,9.4   h9.4c6.6,0,12.3-3.7,15.2-9.2h7.3c16.7,0,30.3,13.6,30.3,30.3H879v-1.1C879,1132.4,854.2,1107.7,823.7,1107.7z" style="fill: #6731A1; fill-opacity: 1;"></path></svg> <svg x="236.27" y="390.188" viewBox="0.17000001668930054 7.170000076293945 448.65997314453125 20.690000534057617" height="20.690000534057617" width="448.65997314453125" style="overflow: visible;"><g fill="#6731A1" fill-opacity="1" style=""><path d="M6.45 27.64L0.17 7.39L3.33 7.39Q3.82 7.39 4.15 7.62Q4.48 7.85 4.59 8.25L4.59 8.25L8.04 20.36Q8.16 20.80 8.27 21.33Q8.37 21.85 8.47 22.44L8.47 22.44Q8.58 21.85 8.71 21.33Q8.85 20.80 9.00 20.36L9.00 20.36L12.98 8.25Q13.09 7.92 13.42 7.66Q13.75 7.39 14.22 7.39L14.22 7.39L15.33 7.39Q15.82 7.39 16.14 7.62Q16.46 7.85 16.59 8.25L16.59 8.25L20.54 20.36Q20.85 21.25 21.07 22.34L21.07 22.34Q21.17 21.80 21.27 21.29Q21.38 20.79 21.49 20.36L21.49 20.36L24.93 8.25Q25.03 7.90 25.37 7.64Q25.70 7.39 26.18 7.39L26.18 7.39L29.13 7.39L22.85 27.64L19.45 27.64L15.02 13.80Q14.94 13.54 14.85 13.23Q14.76 12.92 14.67 12.57L14.67 12.57Q14.59 12.92 14.50 13.23Q14.41 13.54 14.32 13.80L14.32 13.80L9.86 27.64L6.45 27.64ZM42.62 7.39L50.57 27.64L47.66 27.64Q47.17 27.64 46.85 27.39Q46.54 27.15 46.40 26.78L46.40 26.78L44.88 22.65L36.50 22.65L34.99 26.78Q34.87 27.10 34.54 27.37Q34.22 27.64 33.74 27.64L33.74 27.64L30.81 27.64L38.77 7.39L42.62 7.39ZM39.93 13.29L37.46 19.99L43.92 19.99L41.45 13.26Q41.29 12.81 41.08 12.20Q40.88 11.59 40.68 10.88L40.68 10.88Q40.49 11.59 40.30 12.21Q40.11 12.82 39.93 13.29L39.93 13.29ZM51.97 7.39L67.94 7.39L67.94 10.49L61.85 10.49L61.85 27.64L58.09 27.64L58.09 10.49L51.97 10.49L51.97 7.39ZM73.42 7.39L86.18 7.39L86.18 10.39L77.21 10.39L77.21 16.00L84.28 16.00L84.28 18.90L77.21 18.90L77.21 24.63L86.18 24.63L86.18 27.64L73.42 27.64L73.42 7.39ZM98.03 19.73L96.42 19.73L96.42 27.64L92.65 27.64L92.65 7.39L98.83 7.39Q100.90 7.39 102.38 7.82Q103.85 8.25 104.80 9.02Q105.74 9.79 106.18 10.86Q106.62 11.93 106.62 13.22L106.62 13.22Q106.62 14.24 106.32 15.15Q106.02 16.06 105.45 16.80Q104.89 17.54 104.06 18.10Q103.22 18.66 102.16 19.00L102.16 19.00Q102.87 19.40 103.39 20.16L103.39 20.16L108.46 27.64L105.07 27.64Q104.58 27.64 104.24 27.44Q103.89 27.24 103.66 26.88L103.66 26.88L99.40 20.40Q99.16 20.03 98.88 19.88Q98.59 19.73 98.03 19.73L98.03 19.73ZM96.42 10.30L96.42 17.02L98.77 17.02Q99.83 17.02 100.63 16.76Q101.42 16.49 101.93 16.02Q102.44 15.55 102.69 14.91Q102.94 14.27 102.94 13.50L102.94 13.50Q102.94 11.96 101.93 11.13Q100.91 10.30 98.83 10.30L98.83 10.30L96.42 10.30ZM132.27 7.39L140.22 27.64L137.31 27.64Q136.82 27.64 136.51 27.39Q136.19 27.15 136.05 26.78L136.05 26.78L134.54 22.65L126.15 22.65L124.64 26.78Q124.53 27.10 124.20 27.37Q123.87 27.64 123.40 27.64L123.40 27.64L120.47 27.64L128.42 7.39L132.27 7.39ZM129.58 13.29L127.12 19.99L133.57 19.99L131.11 13.26Q130.94 12.81 130.74 12.20Q130.54 11.59 130.34 10.88L130.34 10.88Q130.14 11.59 129.95 12.21Q129.77 12.82 129.58 13.29L129.58 13.29ZM147.36 7.39L147.36 7.39Q147.62 7.39 147.78 7.41Q147.95 7.43 148.09 7.50Q148.22 7.56 148.34 7.68Q148.47 7.80 148.62 7.99L148.62 7.99L159.25 21.53Q159.19 21.04 159.17 20.57Q159.15 20.10 159.15 19.70L159.15 19.70L159.15 7.39L162.47 7.39L162.47 27.64L160.52 27.64Q160.08 27.64 159.78 27.50Q159.49 27.36 159.21 26.99L159.21 26.99L148.62 13.51Q148.67 13.96 148.69 14.40Q148.71 14.84 148.71 15.20L148.71 15.20L148.71 27.64L145.39 27.64L145.39 7.39L147.36 7.39ZM187.61 17.51L187.61 17.51Q187.61 19.74 186.87 21.60Q186.13 23.46 184.79 24.81Q183.44 26.15 181.55 26.89Q179.66 27.64 177.37 27.64L177.37 27.64L169.64 27.64L169.64 7.39L177.37 7.39Q179.66 7.39 181.55 8.14Q183.44 8.89 184.79 10.23Q186.13 11.56 186.87 13.43Q187.61 15.29 187.61 17.51ZM183.76 17.51L183.76 17.51Q183.76 15.85 183.32 14.52Q182.87 13.20 182.04 12.28Q181.22 11.37 180.03 10.88Q178.85 10.39 177.37 10.39L177.37 10.39L173.43 10.39L173.43 24.64L177.37 24.64Q178.85 24.64 180.03 24.15Q181.22 23.66 182.04 22.74Q182.87 21.83 183.32 20.50Q183.76 19.18 183.76 17.51ZM213.91 9.30L212.98 11.07Q212.83 11.38 212.63 11.51Q212.42 11.63 212.14 11.63L212.14 11.63Q211.86 11.63 211.51 11.42Q211.16 11.20 210.69 10.93Q210.21 10.67 209.57 10.45Q208.94 10.23 208.07 10.23L208.07 10.23Q207.28 10.23 206.70 10.42Q206.12 10.61 205.72 10.95Q205.32 11.28 205.13 11.75Q204.93 12.22 204.93 12.78L204.93 12.78Q204.93 13.50 205.33 13.97Q205.73 14.45 206.39 14.78Q207.05 15.12 207.89 15.39Q208.73 15.65 209.60 15.95Q210.48 16.25 211.32 16.65Q212.16 17.05 212.81 17.66Q213.47 18.27 213.87 19.15Q214.27 20.03 214.27 21.29L214.27 21.29Q214.27 22.67 213.80 23.86Q213.33 25.06 212.43 25.95Q211.53 26.84 210.22 27.35Q208.92 27.86 207.24 27.86L207.24 27.86Q206.28 27.86 205.34 27.67Q204.40 27.48 203.54 27.13Q202.68 26.78 201.93 26.29Q201.18 25.80 200.59 25.20L200.59 25.20L201.68 23.39Q201.84 23.20 202.06 23.06Q202.27 22.93 202.54 22.93L202.54 22.93Q202.89 22.93 203.29 23.22Q203.70 23.51 204.25 23.86Q204.81 24.21 205.56 24.49Q206.30 24.78 207.35 24.78L207.35 24.78Q208.96 24.78 209.85 24.02Q210.73 23.25 210.73 21.83L210.73 21.83Q210.73 21.03 210.33 20.52Q209.93 20.02 209.27 19.68Q208.61 19.33 207.77 19.10Q206.93 18.86 206.07 18.58Q205.20 18.30 204.36 17.91Q203.52 17.51 202.86 16.88Q202.20 16.25 201.80 15.31Q201.40 14.36 201.40 12.98L201.40 12.98Q201.40 11.87 201.85 10.82Q202.29 9.77 203.13 8.96Q203.98 8.15 205.21 7.66Q206.44 7.17 208.03 7.17L208.03 7.17Q209.82 7.17 211.33 7.73Q212.84 8.29 213.91 9.30L213.91 9.30ZM220.23 7.39L233.00 7.39L233.00 10.39L224.03 10.39L224.03 16.00L231.10 16.00L231.10 18.90L224.03 18.90L224.03 24.63L233.00 24.63L233.00 27.64L220.23 27.64L220.23 7.39ZM243.75 27.64L237.47 7.39L240.63 7.39Q241.12 7.39 241.45 7.62Q241.78 7.85 241.89 8.25L241.89 8.25L245.34 20.36Q245.46 20.80 245.57 21.33Q245.67 21.85 245.77 22.44L245.77 22.44Q245.88 21.85 246.02 21.33Q246.15 20.80 246.30 20.36L246.30 20.36L250.28 8.25Q250.39 7.92 250.72 7.66Q251.05 7.39 251.52 7.39L251.52 7.39L252.63 7.39Q253.12 7.39 253.44 7.62Q253.76 7.85 253.89 8.25L253.89 8.25L257.84 20.36Q258.15 21.25 258.37 22.34L258.37 22.34Q258.47 21.80 258.57 21.29Q258.68 20.79 258.79 20.36L258.79 20.36L262.23 8.25Q262.33 7.90 262.67 7.64Q263.00 7.39 263.48 7.39L263.48 7.39L266.43 7.39L260.15 27.64L256.75 27.64L252.32 13.80Q252.24 13.54 252.15 13.23Q252.06 12.92 251.97 12.57L251.97 12.57Q251.89 12.92 251.80 13.23Q251.71 13.54 251.62 13.80L251.62 13.80L247.16 27.64L243.75 27.64ZM271.73 7.39L284.49 7.39L284.49 10.39L275.52 10.39L275.52 16.00L282.59 16.00L282.59 18.90L275.52 18.90L275.52 24.63L284.49 24.63L284.49 27.64L271.73 27.64L271.73 7.39ZM296.34 19.73L294.73 19.73L294.73 27.64L290.96 27.64L290.96 7.39L297.14 7.39Q299.21 7.39 300.69 7.82Q302.16 8.25 303.11 9.02Q304.05 9.79 304.49 10.86Q304.93 11.93 304.93 13.22L304.93 13.22Q304.93 14.24 304.63 15.15Q304.33 16.06 303.77 16.80Q303.20 17.54 302.37 18.10Q301.53 18.66 300.47 19.00L300.47 19.00Q301.18 19.40 301.70 20.16L301.70 20.16L306.77 27.64L303.38 27.64Q302.89 27.64 302.55 27.44Q302.20 27.24 301.97 26.88L301.97 26.88L297.71 20.40Q297.47 20.03 297.19 19.88Q296.90 19.73 296.34 19.73L296.34 19.73ZM294.73 10.30L294.73 17.02L297.08 17.02Q298.14 17.02 298.94 16.76Q299.73 16.49 300.24 16.02Q300.75 15.55 301.00 14.91Q301.25 14.27 301.25 13.50L301.25 13.50Q301.25 11.96 300.24 11.13Q299.22 10.30 297.14 10.30L297.14 10.30L294.73 10.30ZM332.51 9.30L331.59 11.07Q331.44 11.38 331.23 11.51Q331.03 11.63 330.75 11.63L330.75 11.63Q330.47 11.63 330.12 11.42Q329.77 11.20 329.29 10.93Q328.82 10.67 328.18 10.45Q327.54 10.23 326.68 10.23L326.68 10.23Q325.89 10.23 325.31 10.42Q324.73 10.61 324.33 10.95Q323.93 11.28 323.74 11.75Q323.54 12.22 323.54 12.78L323.54 12.78Q323.54 13.50 323.94 13.97Q324.34 14.45 325.00 14.78Q325.65 15.12 326.49 15.39Q327.33 15.65 328.21 15.95Q329.08 16.25 329.92 16.65Q330.76 17.05 331.42 17.66Q332.08 18.27 332.48 19.15Q332.88 20.03 332.88 21.29L332.88 21.29Q332.88 22.67 332.41 23.86Q331.94 25.06 331.04 25.95Q330.13 26.84 328.83 27.35Q327.53 27.86 325.85 27.86L325.85 27.86Q324.88 27.86 323.95 27.67Q323.01 27.48 322.15 27.13Q321.29 26.78 320.54 26.29Q319.79 25.80 319.20 25.20L319.20 25.20L320.29 23.39Q320.45 23.20 320.66 23.06Q320.88 22.93 321.15 22.93L321.15 22.93Q321.50 22.93 321.90 23.22Q322.31 23.51 322.86 23.86Q323.41 24.21 324.16 24.49Q324.91 24.78 325.96 24.78L325.96 24.78Q327.57 24.78 328.45 24.02Q329.34 23.25 329.34 21.83L329.34 21.83Q329.34 21.03 328.94 20.52Q328.54 20.02 327.88 19.68Q327.22 19.33 326.38 19.10Q325.54 18.86 324.67 18.58Q323.81 18.30 322.97 17.91Q322.13 17.51 321.47 16.88Q320.81 16.25 320.41 15.31Q320.01 14.36 320.01 12.98L320.01 12.98Q320.01 11.87 320.45 10.82Q320.89 9.77 321.74 8.96Q322.59 8.15 323.82 7.66Q325.05 7.17 326.63 7.17L326.63 7.17Q328.43 7.17 329.94 7.73Q331.45 8.29 332.51 9.30L332.51 9.30ZM338.84 7.39L351.61 7.39L351.61 10.39L342.64 10.39L342.64 16.00L349.71 16.00L349.71 18.90L342.64 18.90L342.64 24.63L351.61 24.63L351.61 27.64L338.84 27.64L338.84 7.39ZM363.45 19.73L361.84 19.73L361.84 27.64L358.08 27.64L358.08 7.39L364.25 7.39Q366.32 7.39 367.80 7.82Q369.28 8.25 370.22 9.02Q371.17 9.79 371.61 10.86Q372.05 11.93 372.05 13.22L372.05 13.22Q372.05 14.24 371.75 15.15Q371.45 16.06 370.88 16.80Q370.31 17.54 369.48 18.10Q368.65 18.66 367.58 19.00L367.58 19.00Q368.30 19.40 368.82 20.16L368.82 20.16L373.88 27.64L370.50 27.64Q370.01 27.64 369.66 27.44Q369.32 27.24 369.08 26.88L369.08 26.88L364.83 20.40Q364.59 20.03 364.30 19.88Q364.01 19.73 363.45 19.73L363.45 19.73ZM361.84 10.30L361.84 17.02L364.20 17.02Q365.26 17.02 366.05 16.76Q366.84 16.49 367.35 16.02Q367.86 15.55 368.12 14.91Q368.37 14.27 368.37 13.50L368.37 13.50Q368.37 11.96 367.35 11.13Q366.34 10.30 364.25 10.30L364.25 10.30L361.84 10.30ZM385.56 27.64L377.38 7.39L380.42 7.39Q380.91 7.39 381.22 7.63Q381.53 7.87 381.68 8.25L381.68 8.25L386.44 20.59Q386.68 21.20 386.90 21.92Q387.11 22.64 387.31 23.44L387.31 23.44Q387.63 21.83 388.11 20.59L388.11 20.59L392.85 8.25Q392.98 7.92 393.30 7.66Q393.62 7.39 394.10 7.39L394.10 7.39L397.14 7.39L388.96 27.64L385.56 27.64ZM406.57 7.39L406.57 27.64L402.79 27.64L402.79 7.39L406.57 7.39ZM428.12 22.86L428.12 22.86Q428.43 22.86 428.65 23.10L428.65 23.10L430.14 24.71Q428.90 26.24 427.10 27.05Q425.31 27.86 422.79 27.86L422.79 27.86Q420.53 27.86 418.73 27.09Q416.93 26.32 415.66 24.95Q414.39 23.58 413.71 21.67Q413.03 19.77 413.03 17.51L413.03 17.51Q413.03 15.23 413.78 13.33Q414.54 11.44 415.91 10.07Q417.28 8.69 419.19 7.93Q421.11 7.17 423.42 7.17L423.42 7.17Q425.67 7.17 427.36 7.89Q429.04 8.61 430.25 9.80L430.25 9.80L428.99 11.55Q428.88 11.72 428.70 11.84Q428.53 11.97 428.22 11.97L428.22 11.97Q427.90 11.97 427.56 11.72Q427.22 11.47 426.71 11.17Q426.19 10.88 425.40 10.63Q424.61 10.37 423.39 10.37L423.39 10.37Q421.96 10.37 420.76 10.87Q419.57 11.37 418.70 12.29Q417.84 13.22 417.36 14.54Q416.88 15.86 416.88 17.51L416.88 17.51Q416.88 19.22 417.36 20.55Q417.84 21.88 418.67 22.79Q419.50 23.70 420.62 24.18Q421.74 24.67 423.02 24.67L423.02 24.67Q423.79 24.67 424.42 24.58Q425.04 24.50 425.56 24.32Q426.09 24.14 426.56 23.85Q427.03 23.56 427.49 23.14L427.49 23.14Q427.63 23.02 427.78 22.94Q427.94 22.86 428.12 22.86ZM436.06 7.39L448.83 7.39L448.83 10.39L439.85 10.39L439.85 16.00L446.92 16.00L446.92 18.90L439.85 18.90L439.85 24.63L448.83 24.63L448.83 27.64L436.06 27.64L436.06 7.39Z" transform="translate(0, 0)"></path></g></svg> <svg x="210.12" y="346.03" viewBox="0.7199999690055847 12.380000114440918 500.9599914550781 26.450000762939453" height="26.450000762939453" width="500.9599914550781" style="overflow: visible;"><g fill="#6731A1" fill-opacity="1" style=""><path d="M13.15 17.31L13.15 38.48L7.70 38.48L7.70 17.31L0.72 17.31L0.72 12.78L20.13 12.78L20.13 17.31L13.15 17.31ZM29.53 38.48L24.08 38.48L24.08 12.78L29.53 12.78L29.53 38.48ZM51.87 38.48L46.88 38.48L40.69 18.32L40.54 18.32Q40.57 19.04 40.65 20.49Q40.73 21.94 40.80 23.57Q40.87 25.21 40.87 26.53L40.87 26.53L40.87 38.48L36 38.48L36 12.78L43.42 12.78L49.50 32.43L49.61 32.43L56.06 12.78L63.47 12.78L63.47 38.48L58.39 38.48L58.39 26.31Q58.39 25.10 58.44 23.52Q58.48 21.94 58.55 20.50Q58.62 19.07 58.66 18.35L58.66 18.35L58.50 18.35L51.87 38.48ZM69.94 38.48L69.94 12.78L77.94 12.78Q83.07 12.78 85.71 14.22Q88.35 15.66 88.35 19.28L88.35 19.28Q88.35 20.74 87.88 21.92Q87.42 23.10 86.54 23.85Q85.66 24.61 84.39 24.84L84.39 24.84L84.39 25.01Q85.68 25.28 86.71 25.92Q87.75 26.56 88.37 27.78Q89.00 29.00 89.00 31.03L89.00 31.03Q89.00 33.36 87.86 35.03Q86.71 36.70 84.59 37.59Q82.48 38.48 79.56 38.48L79.56 38.48L69.94 38.48ZM75.39 17.24L75.39 22.96L78.56 22.96Q80.93 22.96 81.84 22.21Q82.76 21.46 82.76 20.00L82.76 20.00Q82.76 18.53 81.68 17.89Q80.60 17.24 78.26 17.24L78.26 17.24L75.39 17.24ZM78.77 27.28L75.39 27.28L75.39 33.98L78.94 33.98Q81.40 33.98 82.37 33.03Q83.34 32.08 83.34 30.48L83.34 30.48Q83.34 29.53 82.92 28.81Q82.49 28.09 81.50 27.69Q80.51 27.28 78.77 27.28L78.77 27.28ZM108.93 33.98L108.93 38.48L94.13 38.48L94.13 12.78L108.93 12.78L108.93 17.24L99.58 17.24L99.58 22.89L108.28 22.89L108.28 27.35L99.58 27.35L99.58 33.98L108.93 33.98ZM114.29 12.78L121.78 12.78Q125.28 12.78 127.56 13.62Q129.83 14.47 130.94 16.17Q132.05 17.88 132.05 20.48L132.05 20.48Q132.05 22.24 131.38 23.55Q130.71 24.87 129.62 25.79Q128.53 26.70 127.27 27.28L127.27 27.28L134.82 38.48L128.78 38.48L122.64 28.62L119.74 28.62L119.74 38.48L114.29 38.48L114.29 12.78ZM121.39 17.24L121.39 17.24L119.74 17.24L119.74 24.19L121.50 24.19Q124.21 24.19 125.38 23.28Q126.54 22.38 126.54 20.62L126.54 20.62Q126.54 18.79 125.29 18.02Q124.03 17.24 121.39 17.24ZM164.27 12.78L169.63 12.78L163.09 38.48L156.88 38.48L153.40 24.98Q153.30 24.59 153.12 23.80Q152.95 23.01 152.75 22.07Q152.56 21.13 152.41 20.29Q152.26 19.46 152.21 18.97L152.21 18.97Q152.16 19.46 152.01 20.29Q151.86 21.11 151.67 22.04Q151.49 22.97 151.31 23.78Q151.14 24.59 151.03 25.01L151.03 25.01L147.57 38.48L141.38 38.48L134.82 12.78L140.19 12.78L143.47 26.81Q143.61 27.44 143.80 28.32Q143.98 29.20 144.17 30.16Q144.35 31.11 144.50 32.00Q144.65 32.89 144.72 33.54L144.72 33.54Q144.81 32.87 144.95 31.98Q145.09 31.10 145.26 30.17Q145.42 29.25 145.60 28.46Q145.78 27.67 145.92 27.18L145.92 27.18L149.66 12.78L154.81 12.78L158.55 27.18Q158.68 27.65 158.84 28.45Q159.01 29.25 159.19 30.18Q159.36 31.11 159.51 32.00Q159.66 32.89 159.73 33.54L159.73 33.54Q159.86 32.66 160.08 31.40Q160.29 30.15 160.55 28.90Q160.80 27.65 161.00 26.81L161.00 26.81L164.27 12.78ZM196.19 25.59L196.19 25.59Q196.19 28.56 195.45 31.00Q194.71 33.43 193.21 35.19Q191.71 36.95 189.40 37.89Q187.10 38.83 183.96 38.83L183.96 38.83Q180.81 38.83 178.51 37.89Q176.20 36.95 174.70 35.19Q173.20 33.43 172.46 30.99Q171.72 28.55 171.72 25.56L171.72 25.56Q171.72 21.57 173.03 18.61Q174.34 15.64 177.06 14.01Q179.79 12.38 183.99 12.38L183.99 12.38Q188.17 12.38 190.87 14.01Q193.57 15.64 194.88 18.62Q196.19 21.59 196.19 25.59ZM177.43 25.59L177.43 25.59Q177.43 28.28 178.11 30.23Q178.79 32.17 180.23 33.21Q181.67 34.26 183.96 34.26L183.96 34.26Q186.28 34.26 187.72 33.21Q189.16 32.17 189.82 30.23Q190.48 28.28 190.48 25.59L190.48 25.59Q190.48 21.55 188.96 19.23Q187.45 16.91 183.99 16.91L183.99 16.91Q181.69 16.91 180.24 17.96Q178.79 19.00 178.11 20.94Q177.43 22.89 177.43 25.59ZM217.39 38.48L201.52 38.48L201.52 12.78L206.96 12.78L206.96 33.98L217.39 33.98L217.39 38.48ZM227.21 28.32L227.21 38.48L221.85 38.48L221.85 12.78L236.58 12.78L236.58 17.24L227.21 17.24L227.21 23.87L235.93 23.87L235.93 28.32L227.21 28.32ZM277.17 12.78L282.53 12.78L275.99 38.48L269.79 38.48L266.31 24.98Q266.20 24.59 266.03 23.80Q265.85 23.01 265.66 22.07Q265.46 21.13 265.32 20.29Q265.17 19.46 265.11 18.97L265.11 18.97Q265.06 19.46 264.91 20.29Q264.76 21.11 264.58 22.04Q264.39 22.97 264.22 23.78Q264.04 24.59 263.94 25.01L263.94 25.01L260.47 38.48L254.29 38.48L247.73 12.78L253.09 12.78L256.38 26.81Q256.52 27.44 256.70 28.32Q256.89 29.20 257.07 30.16Q257.26 31.11 257.41 32.00Q257.55 32.89 257.63 33.54L257.63 33.54Q257.71 32.87 257.85 31.98Q257.99 31.10 258.16 30.17Q258.33 29.25 258.50 28.46Q258.68 27.67 258.82 27.18L258.82 27.18L262.56 12.78L267.71 12.78L271.46 27.18Q271.58 27.65 271.75 28.45Q271.92 29.25 272.09 30.18Q272.27 31.11 272.42 32.00Q272.57 32.89 272.64 33.54L272.64 33.54Q272.76 32.66 272.98 31.40Q273.20 30.15 273.45 28.90Q273.71 27.65 273.90 26.81L273.90 26.81L277.17 12.78ZM307.37 38.48L301.50 38.48L299.64 32.36L290.27 32.36L288.40 38.48L282.53 38.48L291.60 12.67L298.27 12.67L307.37 38.48ZM291.64 27.79L298.34 27.79L296.47 21.81Q296.30 21.22 296.01 20.28Q295.72 19.34 295.43 18.36Q295.14 17.38 294.96 16.66L294.96 16.66Q294.79 17.38 294.48 18.45Q294.17 19.51 293.89 20.46Q293.61 21.41 293.48 21.81L293.48 21.81L291.64 27.79ZM320.52 17.31L320.52 38.48L315.07 38.48L315.07 17.31L308.09 17.31L308.09 12.78L327.50 12.78L327.50 17.31L320.52 17.31ZM346.25 33.98L346.25 38.48L331.45 38.48L331.45 12.78L346.25 12.78L346.25 17.24L336.90 17.24L336.90 22.89L345.60 22.89L345.60 27.35L336.90 27.35L336.90 33.98L346.25 33.98ZM351.62 12.78L359.10 12.78Q362.60 12.78 364.88 13.62Q367.15 14.47 368.26 16.17Q369.37 17.88 369.37 20.48L369.37 20.48Q369.37 22.24 368.70 23.55Q368.03 24.87 366.94 25.79Q365.85 26.70 364.59 27.28L364.59 27.28L372.15 38.48L366.10 38.48L359.96 28.62L357.06 28.62L357.06 38.48L351.62 38.48L351.62 12.78ZM358.72 17.24L358.72 17.24L357.06 17.24L357.06 24.19L358.82 24.19Q361.53 24.19 362.70 23.28Q363.87 22.38 363.87 20.62L363.87 20.62Q363.87 18.79 362.61 18.02Q361.35 17.24 358.72 17.24ZM401.59 12.78L406.95 12.78L400.41 38.48L394.21 38.48L390.73 24.98Q390.62 24.59 390.45 23.80Q390.27 23.01 390.08 22.07Q389.88 21.13 389.73 20.29Q389.58 19.46 389.53 18.97L389.53 18.97Q389.48 19.46 389.33 20.29Q389.18 21.11 389.00 22.04Q388.81 22.97 388.63 23.78Q388.46 24.59 388.35 25.01L388.35 25.01L384.89 38.48L378.70 38.48L372.15 12.78L377.51 12.78L380.79 26.81Q380.94 27.44 381.12 28.32Q381.30 29.20 381.49 30.16Q381.67 31.11 381.82 32.00Q381.97 32.89 382.04 33.54L382.04 33.54Q382.13 32.87 382.27 31.98Q382.41 31.10 382.58 30.17Q382.75 29.25 382.92 28.46Q383.10 27.67 383.24 27.18L383.24 27.18L386.98 12.78L392.13 12.78L395.88 27.18Q396 27.65 396.17 28.45Q396.33 29.25 396.51 30.18Q396.69 31.11 396.83 32.00Q396.98 32.89 397.05 33.54L397.05 33.54Q397.18 32.66 397.40 31.40Q397.62 30.15 397.87 28.90Q398.13 27.65 398.32 26.81L398.32 26.81L401.59 12.78ZM433.51 25.59L433.51 25.59Q433.51 28.56 432.77 31.00Q432.04 33.43 430.53 35.19Q429.03 36.95 426.73 37.89Q424.42 38.83 421.28 38.83L421.28 38.83Q418.13 38.83 415.83 37.89Q413.53 36.95 412.02 35.19Q410.52 33.43 409.78 30.99Q409.04 28.55 409.04 25.56L409.04 25.56Q409.04 21.57 410.35 18.61Q411.66 15.64 414.39 14.01Q417.11 12.38 421.31 12.38L421.31 12.38Q425.50 12.38 428.19 14.01Q430.89 15.64 432.20 18.62Q433.51 21.59 433.51 25.59ZM414.76 25.59L414.76 25.59Q414.76 28.28 415.43 30.23Q416.11 32.17 417.55 33.21Q418.99 34.26 421.28 34.26L421.28 34.26Q423.60 34.26 425.04 33.21Q426.48 32.17 427.14 30.23Q427.80 28.28 427.80 25.59L427.80 25.59Q427.80 21.55 426.29 19.23Q424.78 16.91 421.31 16.91L421.31 16.91Q419.01 16.91 417.56 17.96Q416.11 19.00 415.43 20.94Q414.76 22.89 414.76 25.59ZM438.84 12.78L446.33 12.78Q449.82 12.78 452.10 13.62Q454.38 14.47 455.48 16.17Q456.59 17.88 456.59 20.48L456.59 20.48Q456.59 22.24 455.92 23.55Q455.26 24.87 454.17 25.79Q453.08 26.70 451.81 27.28L451.81 27.28L459.37 38.48L453.32 38.48L447.19 28.62L444.29 28.62L444.29 38.48L438.84 38.48L438.84 12.78ZM445.94 17.24L445.94 17.24L444.29 17.24L444.29 24.19L446.04 24.19Q448.75 24.19 449.92 23.28Q451.09 22.38 451.09 20.62L451.09 20.62Q451.09 18.79 449.83 18.02Q448.58 17.24 445.94 17.24ZM474.24 24.15L483.28 38.48L477.09 38.48L470.36 27.65L468.05 29.30L468.05 38.48L462.60 38.48L462.60 12.78L468.05 12.78L468.05 24.54Q468.60 23.78 469.13 23.03Q469.65 22.27 470.20 21.52L470.20 21.52L477.16 12.78L483.21 12.78L474.24 24.15ZM501.68 31.34L501.68 31.34Q501.68 33.63 500.57 35.31Q499.46 37.00 497.35 37.92Q495.23 38.83 492.21 38.83L492.21 38.83Q490.87 38.83 489.59 38.65Q488.32 38.48 487.15 38.14Q485.98 37.79 484.93 37.28L484.93 37.28L484.93 32.22Q486.76 33.03 488.72 33.68Q490.69 34.33 492.63 34.33L492.63 34.33Q493.96 34.33 494.78 33.98Q495.60 33.63 495.97 33.01Q496.34 32.40 496.34 31.61L496.34 31.61Q496.34 30.64 495.69 29.95Q495.04 29.27 493.90 28.67Q492.77 28.07 491.34 27.39L491.34 27.39Q490.45 26.96 489.39 26.36Q488.34 25.75 487.39 24.87Q486.44 23.99 485.83 22.74Q485.23 21.48 485.23 19.72L485.23 19.72Q485.23 17.42 486.28 15.79Q487.34 14.15 489.30 13.28Q491.26 12.41 493.93 12.41L493.93 12.41Q495.93 12.41 497.75 12.88Q499.57 13.34 501.56 14.22L501.56 14.22L499.80 18.46Q498.02 17.74 496.62 17.34Q495.21 16.95 493.75 16.95L493.75 16.95Q492.73 16.95 492.01 17.27Q491.29 17.60 490.92 18.18Q490.55 18.77 490.55 19.55L490.55 19.55Q490.55 20.46 491.09 21.08Q491.63 21.71 492.71 22.29Q493.79 22.87 495.40 23.64L495.40 23.64Q497.37 24.57 498.77 25.58Q500.17 26.60 500.92 27.96Q501.68 29.32 501.68 31.34Z" transform="translate(0, 0)"></path></g></svg></svg>